# xmcd
#
# Track frame offsets: 
#        150
#        13564
#        29044
#        41607
#        55958
#        69324
#        82759
#        97254
#        111256
#        124667
#        140459
#        154066
#        168020
#        181884
#        198314
#        211920
#        225922
#        239287
#        253447
#        267528
#        281731
#        295596
#        309990
#        323556
#
# Disc length: 4479 seconds
#
# Revision: 0
# Processed by: cddbd v1.5.2PL0 Copyright (c) Steve Scherf et al.
# Submitted via: ExactAudioCopy v1.0b3
#
DISCID=50117d18
DTITLE=Various Artist - Johnson City Sessions
DYEAR=1900
DGENRE=Country
TTITLE0=Shell Creek Quartet - My Boyhood Days
TTITLE1=Shell Creek Quartet - Back Where The Old Home Stands
TTITLE2=Grant Brothers and Their Music - When A Man Is Married
TTITLE3=Grant Brothers and Their Music - Goodbye My Honey - I'm Gone
TTITLE4=Grant Brothers and Their Music - Tell It To Me
TTITLE5=Grant Brothers and Their Music - Johnson Boy
TTITLE6=Roane County Ramblers - Home Town Blues
TTITLE7=Roane County Ramblers - Southern No. 111
TTITLE8=Roane County Ramblers - Step High Waltz
TTITLE9=Roane County Ramblers - Tennessee Waltz
TTITLE10=Renus Rich and Carl Bradshaw - Goodbye Sweetheart
TTITLE11=Renus Rich and Carl Bradshaw - Sleep Baby Sleep
TTITLE12=Clarence Greene and Wise Brothers - Pride Of The Ball
TTITLE13=Clarence Greeen and Wise Brothers - Kitty Waltz
TTITLE14=Clarence Greene - Johnson City Blues
TTITLE15=Clarence Greene - Ninety-Nine Years In Jail
TTITLE16=Proximity String Quartet - Lindy
TTITLE17=Proximity String Quartet - Louise
TTITLE18=Greensboro Boys Quartet - Sing Me A Song Of The Sunny South
TTITLE19=Greensboro Boys Quartet - Sweet Little Girl Of Mine
TTITLE20=Richard Harold - The Battleship Maine
TTITLE21=Richard Harold - The Fisher's Maid
TTITLE22=Richard Harold - Sweet Bird
TTITLE23=Richard Harold - Mary Dear
EXTD=
EXTT0=
EXTT1=
EXTT2=
EXTT3=
EXTT4=
EXTT5=
EXTT6=
EXTT7=
EXTT8=
EXTT9=
EXTT10=
EXTT11=
EXTT12=
EXTT13=
EXTT14=
EXTT15=
EXTT16=
EXTT17=
EXTT18=
EXTT19=
EXTT20=
EXTT21=
EXTT22=
EXTT23=
PLAYORDER=
